<svg width="1210" height="214" viewBox="0 0 1210 214" fill="none" xmlns="http://www.w3.org/2000/svg">
<path d="M88.24 213.88C70.192 213.88 54.736 210.904 41.872 204.952C29.2 198.808 19.312 189.976 12.208 178.456C5.296 166.744 1.552 152.632 0.976 136.12C0.784001 127.864 0.688001 119.032 0.688001 109.624C0.688001 100.216 0.784001 91.288 0.976 82.84C1.552 66.712 5.296 52.984 12.208 41.656C19.312 30.328 29.296 21.688 42.16 15.736C55.216 9.59199 70.576 6.51999 88.24 6.51999C102.448 6.51999 114.928 8.34399 125.68 11.992C136.432 15.64 145.456 20.44 152.752 26.392C160.048 32.152 165.616 38.488 169.456 45.4C173.296 52.312 175.312 58.936 175.504 65.272C175.504 67 174.928 68.536 173.776 69.88C172.624 71.032 171.088 71.608 169.168 71.608H133.456C131.536 71.608 130 71.224 128.848 70.456C127.888 69.688 127.024 68.536 126.256 67C124.912 63.544 122.704 60.088 119.632 56.632C116.752 52.984 112.816 49.912 107.824 47.416C102.832 44.92 96.304 43.672 88.24 43.672C76.144 43.672 66.544 46.84 59.44 53.176C52.528 59.512 48.784 69.88 48.208 84.28C47.632 100.792 47.632 117.592 48.208 134.68C48.784 149.656 52.624 160.408 59.728 166.936C67.024 173.464 76.72 176.728 88.816 176.728C96.688 176.728 103.696 175.384 109.84 172.696C116.176 169.816 121.168 165.4 124.816 159.448C128.464 153.496 130.288 145.912 130.288 136.696V129.496H98.896C96.976 129.496 95.344 128.824 94 127.48C92.656 125.944 91.984 124.216 91.984 122.296V103.864C91.984 101.752 92.656 100.024 94 98.68C95.344 97.336 96.976 96.664 98.896 96.664H169.456C171.568 96.664 173.296 97.336 174.64 98.68C175.984 100.024 176.656 101.752 176.656 103.864V135.256C176.656 151.768 173.008 165.88 165.712 177.592C158.608 189.304 148.336 198.328 134.896 204.664C121.648 210.808 106.096 213.88 88.24 213.88ZM215.813 211C213.701 211 211.973 210.328 210.629 208.984C209.285 207.64 208.613 205.912 208.613 203.8V13.72C208.613 11.608 209.285 9.87999 210.629 8.536C211.973 7.19199 213.701 6.51999 215.813 6.51999H244.613C246.533 6.51999 248.165 7.19199 249.509 8.536C250.853 9.87999 251.525 11.608 251.525 13.72V203.8C251.525 205.912 250.853 207.64 249.509 208.984C248.165 210.328 246.533 211 244.613 211H215.813ZM302.712 211C300.792 211 299.16 210.328 297.816 208.984C296.472 207.64 295.8 205.912 295.8 203.8V68.44C295.8 66.328 296.472 64.6 297.816 63.256C299.16 61.912 300.792 61.24 302.712 61.24H331.512C333.624 61.24 335.352 61.912 336.696 63.256C338.04 64.6 338.712 66.328 338.712 68.44V203.8C338.712 205.912 338.04 207.64 336.696 208.984C335.352 210.328 333.624 211 331.512 211H302.712ZM301.848 38.2C299.928 38.2 298.296 37.528 296.952 36.184C295.608 34.84 294.936 33.112 294.936 31V7.95999C294.936 5.84799 295.608 4.11999 296.952 2.77599C298.296 1.23999 299.928 0.471998 301.848 0.471998H332.088C334.2 0.471998 335.928 1.23999 337.272 2.77599C338.808 4.11999 339.576 5.84799 339.576 7.95999V31C339.576 33.112 338.808 34.84 337.272 36.184C335.928 37.528 334.2 38.2 332.088 38.2H301.848ZM442.484 213.88C428.469 213.88 416.085 211.288 405.333 206.104C394.773 200.92 386.421 193.432 380.277 183.64C374.133 173.656 370.773 161.752 370.197 147.928C370.005 144.856 369.909 141.016 369.909 136.408C369.909 131.608 370.005 127.672 370.197 124.6C370.773 110.584 374.037 98.68 379.989 88.888C386.133 78.904 394.581 71.32 405.333 66.136C416.085 60.952 428.469 58.36 442.484 58.36C455.349 58.36 466.293 60.184 475.317 63.832C484.341 67.288 491.733 71.704 497.493 77.08C503.253 82.456 507.477 88.12 510.165 94.072C513.045 99.832 514.581 104.92 514.773 109.336C514.965 111.256 514.293 112.984 512.757 114.52C511.413 115.864 509.781 116.536 507.861 116.536H477.045C475.125 116.536 473.589 116.056 472.437 115.096C471.477 113.944 470.517 112.408 469.557 110.488C466.869 103.768 463.413 98.968 459.189 96.088C454.965 93.208 449.685 91.768 443.349 91.768C434.709 91.768 427.893 94.552 422.901 100.12C417.909 105.688 415.221 114.328 414.837 126.04C414.645 133.528 414.645 140.344 414.837 146.488C415.413 158.392 418.101 167.032 422.901 172.408C427.893 177.784 434.709 180.472 443.349 180.472C450.069 180.472 455.445 179.032 459.477 176.152C463.509 173.272 466.869 168.472 469.557 161.752C470.325 159.832 471.285 158.392 472.437 157.432C473.589 156.28 475.125 155.704 477.045 155.704H507.861C509.781 155.704 511.413 156.472 512.757 158.008C514.293 159.352 514.965 160.984 514.773 162.904C514.581 166.168 513.621 170.008 511.893 174.424C510.357 178.84 507.765 183.352 504.117 187.96C500.661 192.568 496.149 196.888 490.581 200.92C485.013 204.76 478.197 207.928 470.133 210.424C462.261 212.728 453.045 213.88 442.484 213.88ZM543.019 211C541.099 211 539.467 210.328 538.123 208.984C536.779 207.64 536.107 205.912 536.107 203.8V184.504C536.107 182.584 536.491 180.856 537.259 179.32C538.219 177.784 539.275 176.344 540.427 175L610.987 94.648H545.611C543.499 94.648 541.771 93.976 540.427 92.632C539.083 91.288 538.411 89.656 538.411 87.736V68.44C538.411 66.328 539.083 64.6 540.427 63.256C541.771 61.912 543.499 61.24 545.611 61.24H657.931C660.043 61.24 661.771 61.912 663.115 63.256C664.459 64.6 665.131 66.328 665.131 68.44V89.176C665.131 90.904 664.747 92.44 663.979 93.784C663.211 95.128 662.251 96.472 661.099 97.816L591.979 177.592H663.979C665.899 177.592 667.531 178.264 668.875 179.608C670.219 180.952 670.891 182.584 670.891 184.504V203.8C670.891 205.912 670.219 207.64 668.875 208.984C667.531 210.328 665.899 211 663.979 211H543.019ZM709.2 211C707.088 211 705.36 210.328 704.016 208.984C702.672 207.64 702 205.912 702 203.8V16.6C702 14.488 702.672 12.76 704.016 11.416C705.36 10.072 707.088 9.39999 709.2 9.39999H781.488C800.688 9.39999 816.72 12.472 829.584 18.616C842.448 24.568 852.24 33.4 858.96 45.112C865.872 56.632 869.52 70.936 869.904 88.024C870.096 96.472 870.192 103.864 870.192 110.2C870.192 116.536 870.096 123.832 869.904 132.088C869.328 149.944 865.776 164.728 859.248 176.44C852.72 188.152 843.12 196.888 830.448 202.648C817.776 208.216 801.936 211 782.928 211H709.2ZM747.792 173.848H781.488C791.088 173.848 798.96 172.408 805.104 169.528C811.248 166.648 815.76 162.136 818.64 155.992C821.712 149.656 823.344 141.496 823.536 131.512C823.728 125.944 823.824 120.952 823.824 116.536C824.016 112.12 824.016 107.704 823.824 103.288C823.824 98.872 823.728 93.976 823.536 88.6C823.152 74.2 819.408 63.64 812.304 56.92C805.392 50.008 794.64 46.552 780.048 46.552H747.792V173.848ZM969.835 213.88C947.755 213.88 930.187 207.736 917.131 195.448C904.267 183.16 897.451 165.304 896.683 141.88C896.683 140.344 896.683 138.328 896.683 135.832C896.683 133.144 896.683 131.032 896.683 129.496C897.451 114.712 900.811 102.04 906.763 91.48C912.715 80.728 921.067 72.568 931.819 67C942.571 61.24 955.147 58.36 969.547 58.36C985.675 58.36 999.115 61.72 1009.87 68.44C1020.81 74.968 1028.97 83.992 1034.35 95.512C1039.92 106.84 1042.7 119.896 1042.7 134.68V141.304C1042.7 143.224 1041.93 144.856 1040.4 146.2C1039.05 147.544 1037.42 148.216 1035.5 148.216H941.323C941.323 148.408 941.323 148.792 941.323 149.368C941.323 149.752 941.323 150.136 941.323 150.52C941.515 156.664 942.667 162.328 944.779 167.512C947.083 172.504 950.251 176.536 954.283 179.608C958.507 182.68 963.499 184.216 969.259 184.216C974.059 184.216 977.995 183.544 981.067 182.2C984.139 180.856 986.635 179.224 988.555 177.304C990.667 175.384 992.203 173.752 993.163 172.408C994.891 170.488 996.235 169.336 997.195 168.952C998.347 168.376 1000.08 168.088 1002.38 168.088H1032.33C1034.25 168.088 1035.79 168.664 1036.94 169.816C1038.28 170.776 1038.86 172.216 1038.67 174.136C1038.48 177.208 1036.84 181.048 1033.77 185.656C1030.89 190.072 1026.57 194.488 1020.81 198.904C1015.05 203.128 1007.85 206.68 999.211 209.56C990.763 212.44 980.971 213.88 969.835 213.88ZM941.323 122.008H997.771V121.432C997.771 114.52 996.619 108.568 994.315 103.576C992.203 98.392 989.035 94.36 984.811 91.48C980.587 88.6 975.499 87.16 969.547 87.16C963.595 87.16 958.507 88.6 954.283 91.48C950.059 94.36 946.795 98.392 944.491 103.576C942.379 108.568 941.323 114.52 941.323 121.432V122.008ZM1118.85 211C1115.97 211 1113.77 210.328 1112.23 208.984C1110.89 207.448 1109.73 205.72 1108.77 203.8L1054.63 70.168C1054.25 69.4 1054.05 68.536 1054.05 67.576C1054.05 65.848 1054.63 64.408 1055.78 63.256C1057.13 61.912 1058.66 61.24 1060.39 61.24H1088.33C1090.82 61.24 1092.65 61.912 1093.8 63.256C1095.14 64.6 1096.01 65.848 1096.39 67L1131.81 162.04L1167.24 67C1167.81 65.848 1168.68 64.6 1169.83 63.256C1171.17 61.912 1173 61.24 1175.3 61.24H1203.24C1204.97 61.24 1206.41 61.912 1207.56 63.256C1208.9 64.408 1209.57 65.848 1209.57 67.576C1209.57 68.536 1209.48 69.4 1209.29 70.168L1154.85 203.8C1154.09 205.72 1152.93 207.448 1151.4 208.984C1149.86 210.328 1147.65 211 1144.77 211H1118.85Z" fill="white"/>
</svg>
